<svg width="49" height="35" viewBox="0 0 49 35" fill="none" xmlns="http://www.w3.org/2000/svg">
<path d="M37.1875 0C33.4469 0 31.1719 0.721875 29.8594 1.33438C28.175 0.503125 26.25 0 24.0625 0C21.875 0 19.95 0.503125 18.2656 1.33438C16.9531 0.721875 14.6781 0 10.9375 0C4.375 0 0 17.5 0 21.875C0 23.6906 2.8875 25.3531 6.86875 26.0312C8.26875 30.9312 14.875 34.6719 22.9688 35V25.6375C21.6781 24.8281 19.6875 23.3625 19.6875 21.875C19.6875 19.6875 24.0625 19.6875 24.0625 19.6875C24.0625 19.6875 28.4375 19.6875 28.4375 21.875C28.4375 23.3625 26.4469 24.8281 25.1562 25.6375V35C33.25 34.6719 39.8563 30.9312 41.2563 26.0312C45.2375 25.3531 48.125 23.6906 48.125 21.875C48.125 17.5 43.75 0 37.1875 0ZM6.89062 21.5906C5.79688 21.3281 4.94375 21.0219 4.375 20.7812C4.92188 14.7219 9.1875 5.25 11.0469 4.375C12.2281 4.375 13.125 4.50625 13.9344 4.61563C9.34062 9.66875 7.525 17.5875 6.89062 21.5906ZM17.5 17.5C16.9198 17.5 16.3634 17.2695 15.9532 16.8593C15.543 16.4491 15.3125 15.8927 15.3125 15.3125C15.3125 14.1313 16.2969 13.125 17.5 13.125C18.0802 13.125 18.6366 13.3555 19.0468 13.7657C19.457 14.1759 19.6875 14.7323 19.6875 15.3125C19.6875 16.5375 18.7031 17.5 17.5 17.5ZM30.625 17.5C30.0448 17.5 29.4884 17.2695 29.0782 16.8593C28.668 16.4491 28.4375 15.8927 28.4375 15.3125C28.4375 14.1313 29.4219 13.125 30.625 13.125C31.2052 13.125 31.7616 13.3555 32.1718 13.7657C32.582 14.1759 32.8125 14.7323 32.8125 15.3125C32.8125 16.5375 31.8281 17.5 30.625 17.5ZM41.2344 21.5906C40.6 17.5875 38.7844 9.66875 34.1906 4.61563C35 4.50625 35.8969 4.375 37.0781 4.375C38.9375 5.25 43.2031 14.7219 43.75 20.7812C43.2031 21.0219 42.35 21.3281 41.2344 21.5906Z" fill="#276735"/>
</svg>
